<?xml version="1.0" encoding="UTF-8" standalone="no"?>
<!DOCTYPE svg PUBLIC "-//W3C//DTD SVG 1.1//EN"
 "http://www.w3.org/Graphics/SVG/1.1/DTD/svg11.dtd">
<!-- Generated by graphviz version 2.38.0 (20140413.2041)
 -->
<!-- Title: bdd Pages: 1 -->
<svg width="201pt" height="293pt"
 viewBox="0.00 0.00 201.40 293.39" xmlns="http://www.w3.org/2000/svg" xmlns:xlink="http://www.w3.org/1999/xlink">
<g id="graph0" class="graph" transform="scale(1 1) rotate(0) translate(16.2 277.19)">
<title>bdd</title>
<polygon fill="#3399cc" stroke="none" points="-16.2,16.2 -16.2,-277.19 185.2,-277.19 185.2,16.2 -16.2,16.2"/>
<!-- h1 -->
<g id="node1" class="node"><title>h1</title>
<polygon fill="none" stroke="none" points="54,-259.491 0,-259.491 0,-223.491 54,-223.491 54,-259.491"/>
<text text-anchor="middle" x="27" y="-237.791" font-family="calibri" font-size="14.00">BDD</text>
</g>
<!-- I -->
<g id="node2" class="node"><title>I</title>
<polygon fill="white" stroke="black" points="105,-36 69,-36 69,-0 105,-0 105,-36"/>
<text text-anchor="middle" x="87" y="-14.3" font-family="calibri" font-size="14.00">⊤</text>
</g>
<!-- O -->
<g id="node3" class="node"><title>O</title>
<polygon fill="#333333" stroke="black" points="169,-36 133,-36 133,-0 169,-0 169,-36"/>
<text text-anchor="middle" x="151" y="-14.3" font-family="calibri" font-size="14.00" fill="white">⊥</text>
</g>
<!-- x2.1 -->
<g id="node4" class="node"><title>x2.1</title>
<ellipse fill="#bbbbbb" stroke="black" cx="91" cy="-241.491" rx="19.4965" ry="19.4965"/>
<text text-anchor="middle" x="91" y="-237.791" font-family="calibri" font-size="14.00">x2</text>
</g>
<!-- x2.1&#45;&gt;I -->
<g id="edge1" class="edge"><title>x2.1&#45;&gt;I</title>
<path fill="none" stroke="black" d="M88.891,-222.105C87.7866,-211.554 86.5518,-198.047 86,-185.993 83.4943,-131.255 85.2335,-66.3199 86.3155,-36.0799"/>
</g>
<!-- x1.0 -->
<g id="node5" class="node"><title>x1.0</title>
<ellipse fill="#bbbbbb" stroke="black" cx="114" cy="-166.495" rx="19.4965" ry="19.4965"/>
<text text-anchor="middle" x="114" y="-162.795" font-family="calibri" font-size="14.00">x1</text>
</g>
<!-- x2.1&#45;&gt;x1.0 -->
<g id="edge4" class="edge"><title>x2.1&#45;&gt;x1.0</title>
<path fill="none" stroke="black" stroke-dasharray="5,2" d="M96.6854,-222.447C100.251,-211.132 104.827,-196.607 108.38,-185.331"/>
</g>
<!-- x1.0&#45;&gt;O -->
<g id="edge5" class="edge"><title>x1.0&#45;&gt;O</title>
<path fill="none" stroke="black" stroke-dasharray="5,2" d="M124.276,-149.477C130.495,-138.962 137.978,-124.671 142,-110.997 149.427,-85.7476 151.031,-55.0934 151.226,-36.3217"/>
</g>
<!-- x0 -->
<g id="node6" class="node"><title>x0</title>
<ellipse fill="#bbbbbb" stroke="black" cx="114" cy="-91.4983" rx="19.4965" ry="19.4965"/>
<text text-anchor="middle" x="114" y="-87.7983" font-family="calibri" font-size="14.00">x0</text>
</g>
<!-- x1.0&#45;&gt;x0 -->
<g id="edge2" class="edge"><title>x1.0&#45;&gt;x0</title>
<path fill="none" stroke="black" d="M114,-146.696C114,-135.798 114,-122.121 114,-111.233"/>
</g>
<!-- x0&#45;&gt;I -->
<g id="edge3" class="edge"><title>x0&#45;&gt;I</title>
<path fill="none" stroke="black" d="M107.326,-72.8245C103.141,-61.742 97.7679,-47.5142 93.5974,-36.4704"/>
</g>
<!-- x0&#45;&gt;O -->
<g id="edge6" class="edge"><title>x0&#45;&gt;O</title>
<path fill="none" stroke="black" stroke-dasharray="5,2" d="M122.582,-73.9154C128.388,-62.6947 136.046,-47.8974 141.949,-36.4904"/>
</g>
</g>
</svg>
